<svg xmlns="http://www.w3.org/2000/svg" height="106.666" width="106.666" xmlns:xlink="http://www.w3.org/1999/xlink" viewBox="0 0 100 100"><defs><linearGradient id="e" y2="127.51" gradientUnits="userSpaceOnUse" x2="63.653" gradientTransform="matrix(.0923 0 0 .09228 63.827 30.347)" y1=".941" x1="63.653"><stop stop-color="#dd4c40" offset="0"/><stop stop-color="#b53120" offset="1"/></linearGradient><linearGradient id="d" y2="54.291" gradientUnits="userSpaceOnUse" x2="48.127" gradientTransform="matrix(.0923 0 0 .09228 63.827 30.347)" y1="128.61" x1="48.127"><stop stop-color="#802218" offset="0"/><stop stop-color="#db4b3e" offset="1"/></linearGradient><clipPath id="a"><circle stroke-width="3.599" stroke-linecap="square" stroke="#646464" cy="50.26" cx="49.61" r="48.117" fill="#fff"/></clipPath></defs><g clip-path="url(#a)"><rect ry="0" height="16.058" width="135.78" y="12.186" x="-38.245" fill="#6490e9"/><rect ry=".389" height="18.644" width="135.7" stroke="#b3b3b3" stroke-linecap="square" y="27.081" x="-38.158" stroke-width=".563" fill="#ececec"/><rect id="b" ry=".915" height="1.831" width="8.076" y="32.397" x="82.249" fill="#666"/><use id="c" xlink:href="#b" transform="translate(0 2.94)" height="100%" width="100%"/><use xlink:href="#c" transform="translate(0 2.94)" height="100%" width="100%"/><g stroke="#b3b3b3"><rect ry="1.923" height="12.965" width="94.418" y="29.77" x="-34.559" stroke-width=".436" fill="#fff"/><rect ry="2.254" height="13.176" width="13.176" stroke-linecap="square" y="29.665" x="63.147" stroke-width=".225" fill="#ccc"/><path d="M69.65 44.266l-2.71 2.712H-2.54c-.775 0-1.4.624-1.4 1.4V82.18c0 .777.625 1.4 1.4 1.4h76.09c.775 0 1.4-.623 1.4-1.4V48.378c0-.775-.625-1.4-1.4-1.4h-1.186z" stroke-linecap="square" stroke-width=".45" fill="#fff"/></g><path d="M-2.097 71.165h75.05" stroke="#ccc" stroke-width=".45" fill="none"/><text font-size="3.938" y="56.015" x="3.013" font-family="sans-serif" fill="#666" word-spacing="0" letter-spacing="0"><tspan y="56.015" x="3.013"><tspan y="56.015" x="3.013">Run Flash plugins here</tspan></tspan><tspan y="66.805" x="3.013"><tspan x="3.013">Run Flash plugins on </tspan><tspan font-weight="bold">twitch.tv</tspan></tspan><tspan y="77.594" x="3.013"><tspan x="3.013">Settings</tspan></tspan></text><path style="isolation:auto;mix-blend-mode:normal" d="M75.64 36.254a5.907 5.906 0 0 1-11.812 0 5.907 5.906 0 1 1 11.813 0z" stroke="url(#d)" stroke-width=".187" fill="url(#e)" color="#000"/><g fill="#efefef"><path d="M68.043 34.808l-.462.46-.15.15-.22.22a1.862 1.862 0 0 0 0 2.65l.005.006-.747.743a.372.372 0 0 0 0 .53.378.378 0 0 0 .534 0l.748-.743a1.89 1.89 0 0 0 2.662-.005l.223-.225.15-.15.462-.458-1.334-1.327-.532-.53z"/><rect transform="scale(1.0033 .9967) rotate(-45)" ry=".376" height="5.641" width=".752" y="72.082" x="23.654"/><path d="M71.332 33.004a.378.378 0 0 0-.533 0l-1.58 1.57.532.53 1.578-1.57a.372.372 0 0 0 0-.53zm1.715 1.704a.378.378 0 0 0-.534 0l-1.577 1.57.534.53 1.577-1.57a.372.372 0 0 0 0-.53z"/></g></g><circle cx="50" stroke-linecap="square" stroke="#646464" cy="50" r="48.197" stroke-width="3.605" fill="none"/></svg>