<svg xmlns="http://www.w3.org/2000/svg" height="106.666" width="106.666" viewBox="0 0 100 100"><defs><linearGradient id="c" x1="63.653" gradientUnits="userSpaceOnUse" x2="63.653" gradientTransform="translate(20.174 35.744) scale(.0509)" y1=".941" y2="127.51"><stop stop-color="#dd4c40" offset="0"/><stop stop-color="#b53120" offset="1"/></linearGradient><linearGradient id="b" x1="48.127" gradientUnits="userSpaceOnUse" x2="48.127" gradientTransform="translate(20.174 35.744) scale(.0509)" y1="128.61" y2="54.291"><stop stop-color="#802218" offset="0"/><stop stop-color="#db4b3e" offset="1"/></linearGradient><clipPath id="a"><circle stroke-width="2.881" stroke-linecap="square" stroke="#646464" cy="47.681" cx="30.955" r="38.516" fill="gray"/></clipPath></defs><g clip-path="url(#a)" transform="translate(11.265 -9.665) scale(1.2513)"><path fill="#e8e8e8" d="M71.81-14a8.542 8.542 0 0 1 8.54 8.542v145.22a8.542 8.542 0 0 1-8.542 8.543h-191.53a8.542 8.542 0 0 1-8.543-8.543V-5.458A8.542 8.542 0 0 1-119.722-14z"/><path d="M70.81 139.76c0 .786-.638 1.425-1.423 1.425h-184.5a1.425 1.425 0 0 1-1.424-1.425V-5.46c0-.784.638-1.423 1.424-1.423h184.5c.785 0 1.424.64 1.424 1.423v145.22z" stroke="#c9c9c9" stroke-miterlimit="10" stroke-width=".621" fill="#fff"/><path fill="#9e0008" d="M-118.11 133.27H71v8.374h-189.11z"/><path fill="#afafaf" d="M-118.11 117.52H71v15.752h-189.11z"/><path fill="#f4f4f4" d="M-118.11 38.175H71v79.34h-189.11z"/><path fill="#c9c9c9" d="M-118.11 20.546H71v17.63h-189.11z"/><path fill="#9e0008" d="M-118.11 12.238H71v8.307h-189.11z"/><path fill="#ca0002" d="M-118.11-7.16H71v19.4h-189.11z"/><path fill="#fff" d="M-13.737-.095h35.87v5.91h-35.87z"/><path fill="#c9c9c9" d="M22.133-.095h12.282v5.98H22.133z"/><g stroke-linejoin="round" stroke="#fff" stroke-linecap="round" stroke-miterlimit="10" fill="none"><path stroke-width=".392" d="M54.583-7.158v7.063"/><path d="M50.93-2.356h-7.84m-147.92 18.78h-7.83m24.952 0h-7.84m24.958 0h-7.84m24.957 0h-7.84m24.96 0h-7.84m24.956 0h-7.84m24.957 0h-7.842m24.962 0H7.156m24.96 0h-7.84m24.957 0h-7.84m24.957 0h-7.84m7.156-18.78h-7.84" stroke-width="2.352"/></g><text font-size="13.144" y="34.52" x="-73.467" font-family="Lato-Black" fill="#fff">TODAYS NEWS</text><g stroke-linejoin="round" stroke-linecap="round" stroke-miterlimit="10" fill="none"><path stroke="#fff" stroke-width="1.176" d="M-83.887 29.362h-24.853m167.926 0H34.33"/><g stroke="#919191"><path d="M-109.36 47.9H-4.79m-43.427 44.213H-4.79m-104.93 0h43.287m87.18 0h42.23" stroke-width="3.92"/><path d="M-109.36 58.723H-4.79m-104.57 4.117H-4.79m-104.57 4.115H-4.79m-104.57 4.117H-4.79m-104.57 4.115H-4.79m-104.57 4.116h38.77" stroke-width="1.176"/></g></g><path fill="#1b9ecc" d="M19.26 83.386V77.28L64.9 54.298v29.09z"/><path fill="#29aae1" d="M19.26 77.28V43.253H64.9v11.045z"/><path fill="#fff" d="M24.458 77.724a2.24 2.24 0 0 0 2.24 2.24h31.246a2.24 2.24 0 0 0 2.24-2.24v-2.2a2.24 2.24 0 0 0-2.24-2.24H26.697a2.24 2.24 0 0 0-2.24 2.24v2.2z"/><text font-size="4.995" y="78.479" x="26.716" font-family="sans-serif" fill="#29aae1" word-spacing="0" letter-spacing="0"><tspan x="26.716" y="78.479">CLICK HERE!</tspan></text><path style="isolation:auto;mix-blend-mode:normal" fill="#363636" d="M21.11 34.753a1.84 1.84 0 0 0-1.846 1.844v6.656h21.924v-6.658a1.84 1.84 0 0 0-1.845-1.844z" color="#000"/><path style="isolation:auto;mix-blend-mode:normal" d="M26.695 39.005a3.258 3.257 0 0 1-6.515 0 3.258 3.257 0 1 1 6.515 0z" stroke="url(#b)" stroke-width=".103" fill="url(#c)" color="#000"/><g fill="#efefef"><path d="M22.5 38.205l-.256.254-.082.08-.124.12a1.027 1.027 0 0 0 0 1.46h.004l-.412.41a.208.208 0 1 0 .294.29l.412-.41a1.04 1.04 0 0 0 1.468-.003l.124-.12.082-.08.255-.257-.736-.73-.3-.29zm.08-.52a.21.21 0 0 1 .293 0l1.913 1.9a.205.205 0 0 1 0 .294.21.21 0 0 1-.294 0l-1.912-1.91a.205.205 0 0 1 0-.294z"/><path d="M24.313 37.214a.208.208 0 0 0-.294 0l-.88.866.294.292.87-.866a.205.205 0 0 0 0-.292zm.95.936a.21.21 0 0 0-.293 0l-.87.864.294.293.87-.866a.205.205 0 0 0 0-.29z"/></g><text font-size="4.495" y="40.677" x="27.668" font-family="sans-serif" fill="#fff" word-spacing="0" letter-spacing="0"><tspan y="40.677" x="27.668">Close</tspan></text><g stroke-linejoin="round" stroke="#919191" stroke-linecap="round" stroke-miterlimit="10" fill="none"><path d="M19.943 100.8H62.17m-42.227 3.34H62.17m-42.227 3.35H62.17m-42.227 3.34H62.17" stroke-width="1.176"/><path d="M-49.137 100.8H-4.79m-44.347 3.34H-4.79m-44.347 3.35H-4.79m-44.347 3.34H-4.79m-105.7-10.03h44.352m-44.352 3.34h44.352m-44.352 3.35h44.352m-44.352 3.34h44.352" stroke-width="1.205"/></g></g><circle stroke-width="3.605" stroke-linecap="square" stroke="#646464" cy="50" cx="50" r="48.197" fill="none"/><text style="text-align:center" font-size="7.5" y="62.547" x="63.987" font-family="sans-serif" fill="#fff" word-spacing="0" letter-spacing="0" text-anchor="middle"><tspan x="63.987" y="62.547">Flash</tspan><tspan x="63.987" y="70.947">Content</tspan></text></svg>