<svg xmlns="http://www.w3.org/2000/svg" height="128" width="128" viewBox="0 0 128 128.00001"><path style="isolation:auto;mix-blend-mode:normal" d="M125.1 64.027a61.102 61.102 0 0 1-122.2 0 61.102 61.102 0 1 1 122.2 0z" fill-opacity=".15" stroke="#f2f2f2" stroke-width="5.796" color="#000"/><g fill="#efefef"><path d="M46.508 49.06l-4.776 4.757-1.552 1.544-2.31 2.298a19.26 19.26 0 0 0 0 27.422l.054.054-7.727 7.68c-1.53 1.518-1.53 3.964 0 5.484s3.99 1.52 5.52 0l7.73-7.68c7.65 7.538 19.915 7.522 27.542-.054l2.31-2.298 1.55-1.542 4.78-4.756-13.8-13.712-5.52-5.482z"/><rect ry="3.891" transform="scale(1.00326 .99674) rotate(-45)" height="58.36" width="7.781" y="61.708" x="2.031"/><path d="M80.536 30.4a3.91 3.91 0 0 0-5.518 0l-16.33 16.25 5.526 5.48L80.54 35.885a3.85 3.85 0 0 0-.003-5.483zm17.736 17.63a3.913 3.913 0 0 0-5.52 0L76.437 64.262l5.526 5.48 16.31-16.23a3.85 3.85 0 0 0 0-5.484z"/></g></svg>